<svg width="99" height="115" viewBox="0 0 99 115" fill="none" xmlns="http://www.w3.org/2000/svg">
<path d="M2.92637 2.01885C3.08788 0.9715 4.14308 0.228724 5.28322 0.359816C6.42337 0.490906 7.21671 1.44622 7.05521 2.49358L2.92637 2.01885ZM16.5402 89.0909L15.228 90.5955L16.5402 89.0909ZM97.8303 96.9915C98.7641 97.5952 98.9749 98.7864 98.3012 99.6523L87.3215 113.763C86.6477 114.628 85.3445 114.841 84.4106 114.237C83.4768 113.634 83.266 112.442 83.9397 111.577L93.6995 99.0341L80.1726 90.2901C79.2387 89.6864 79.0279 88.4952 79.7017 87.6293C80.3754 86.7634 81.6787 86.5508 82.6125 87.1545L97.8303 96.9915ZM4.99079 2.25621C7.05521 2.49358 7.05521 2.49355 7.05518 2.49379C7.05511 2.49423 7.05503 2.49473 7.0549 2.49561C7.05463 2.49736 7.0542 2.50017 7.05361 2.50405C7.05242 2.5118 7.05059 2.52379 7.04815 2.53995C7.04325 2.57229 7.03587 2.62135 7.02617 2.68664C7.00677 2.81724 6.97811 3.0128 6.94153 3.26951C6.86836 3.78296 6.76352 4.54094 6.63777 5.51305C6.38625 7.45747 6.05123 10.2574 5.71868 13.6698C5.05321 20.4985 4.39952 29.7611 4.44133 39.5186C4.48321 49.2898 5.22279 59.4839 7.31211 68.2031C9.41974 76.9988 12.8162 83.9233 17.8524 87.5864L15.228 90.5955C9.05195 86.1032 5.39866 78.0957 3.23846 69.0806C1.05997 59.9893 0.313728 49.494 0.271307 39.5955C0.228829 29.6831 0.89237 20.2953 1.56521 13.391C1.90182 9.93694 2.24121 7.09981 2.49683 5.12373C2.62465 4.1356 2.73156 3.3625 2.80674 2.83491C2.84433 2.57111 2.874 2.36867 2.89439 2.23139C2.90458 2.16276 2.91246 2.11041 2.91784 2.07483C2.92054 2.05703 2.92261 2.04344 2.92404 2.03409C2.92475 2.02941 2.9253 2.0258 2.9257 2.02326C2.92589 2.02199 2.92606 2.02089 2.92616 2.02025C2.92629 2.01942 2.92637 2.01885 4.99079 2.25621ZM17.8524 87.5864C29.9186 96.3629 49.3041 98.7482 66.1055 98.8148C74.4347 98.8478 81.9905 98.3122 87.4655 97.7677C90.2012 97.4956 92.4132 97.2217 93.9372 97.0164C94.6991 96.9138 95.2888 96.8284 95.6857 96.769C95.8842 96.7393 96.0344 96.7162 96.1339 96.7006C96.1836 96.6928 96.2207 96.6869 96.2447 96.6831C96.2567 96.6812 96.2654 96.6798 96.2709 96.6789C96.2736 96.6784 96.2755 96.6781 96.2766 96.678C96.2771 96.6779 96.2773 96.6778 96.2776 96.6778C96.2776 96.6778 96.2773 96.6778 96.6103 98.5593C96.9433 100.441 96.9426 100.441 96.9418 100.441C96.9412 100.441 96.9401 100.441 96.939 100.441C96.9367 100.442 96.9337 100.442 96.9298 100.443C96.9219 100.444 96.9108 100.446 96.8964 100.448C96.8675 100.453 96.8256 100.46 96.771 100.468C96.6616 100.485 96.5012 100.51 96.2923 100.541C95.8746 100.604 95.2629 100.692 94.4778 100.798C92.9077 101.009 90.6431 101.29 87.8488 101.568C82.2637 102.123 74.5457 102.671 66.0199 102.637C49.1112 102.57 28.4617 100.221 15.228 90.5955L17.8524 87.5864Z" fill="#FF8400"/>
</svg>
