<svg width="107" height="30" viewBox="0 0 107 30" fill="none" xmlns="http://www.w3.org/2000/svg">
<path d="M2.00529 17.0772C0.901449 17.0801 0.00417544 16.1865 0.00117311 15.0812C-0.00182927 13.9759 0.89058 13.0775 1.99442 13.0746L2.00529 17.0772ZM38.5169 14.9823L38.5117 12.981L38.5169 14.9823ZM105.427 13.3994C106.209 14.179 106.213 15.4462 105.434 16.2297L92.7479 28.9979C91.9694 29.7815 90.7039 29.7846 89.9213 29.0051C89.1387 28.2255 89.1354 26.9583 89.9139 26.1748L101.191 14.8252L89.8549 3.53262C89.0723 2.75302 89.069 1.48587 89.8475 0.702346C90.626 -0.0811761 91.8915 -0.0843624 92.6741 0.695231L105.427 13.3994ZM1.99986 15.0759C1.99442 13.0746 1.99449 13.0746 1.99463 13.0746C1.99478 13.0746 1.99499 13.0746 1.99527 13.0746C1.99583 13.0746 1.99668 13.0746 1.99781 13.0746C2.00006 13.0746 2.00344 13.0746 2.00794 13.0746C2.01692 13.0746 2.03036 13.0745 2.04819 13.0745C2.08384 13.0744 2.13702 13.0742 2.20715 13.0741C2.3474 13.0737 2.55545 13.0731 2.82662 13.0724C3.36896 13.071 4.16378 13.0689 5.17371 13.0663C7.19357 13.061 10.0739 13.0535 13.5156 13.0446C20.3991 13.0268 29.5284 13.0034 38.5117 12.981L38.5221 16.9836C29.5389 17.006 20.4097 17.0294 13.5263 17.0472C10.0846 17.0561 7.20434 17.0636 5.18451 17.0689C4.17459 17.0715 3.37979 17.0736 2.83746 17.075C2.5663 17.0758 2.35825 17.0763 2.218 17.0767C2.14788 17.0768 2.0947 17.077 2.05905 17.0771C2.04123 17.0771 2.02779 17.0772 2.0188 17.0772C2.01431 17.0772 2.01093 17.0772 2.00868 17.0772C2.00755 17.0772 2.00671 17.0772 2.00614 17.0772C2.00585 17.0772 2.00564 17.0772 2.00551 17.0772C2.00536 17.0772 2.00529 17.0772 1.99986 15.0759ZM38.5117 12.981C57.6805 12.9331 74.0556 12.892 85.6385 12.863C91.4299 12.8484 96.0233 12.8369 99.1688 12.829C100.742 12.825 101.952 12.822 102.77 12.8199C103.179 12.8189 103.489 12.8181 103.698 12.8176C103.802 12.8173 103.88 12.8171 103.933 12.817C103.959 12.8169 103.979 12.8169 103.992 12.8169C103.999 12.8168 104.004 12.8168 104.007 12.8168C104.009 12.8168 104.01 12.8168 104.011 12.8168C104.011 12.8168 104.012 12.8168 104.012 12.8168C104.012 12.8168 104.012 12.8168 104.017 14.8181C104.022 16.8194 104.022 16.8194 104.022 16.8194C104.022 16.8194 104.022 16.8194 104.021 16.8194C104.02 16.8194 104.019 16.8194 104.017 16.8194C104.014 16.8194 104.009 16.8194 104.003 16.8195C103.989 16.8195 103.97 16.8196 103.943 16.8196C103.891 16.8197 103.812 16.8199 103.708 16.8202C103.5 16.8207 103.189 16.8215 102.78 16.8225C101.963 16.8246 100.752 16.8276 99.1792 16.8316C96.0337 16.8395 91.4403 16.8511 85.6489 16.8656C74.066 16.8947 57.6909 16.9357 38.5221 16.9836L38.5117 12.981Z" fill="#FF8400"/>
</svg>
