<svg width="120" height="95" viewBox="0 0 120 95" fill="none" xmlns="http://www.w3.org/2000/svg">
<path d="M1.72155 3.14715C0.627416 3.30123 -0.134444 4.31249 0.0198824 5.40586C0.174206 6.49924 1.18628 7.2607 2.28041 7.10663L1.72155 3.14715ZM92.8692 16.1637L91.3039 17.4086L92.8692 16.1637ZM101.136 93.8227C101.768 94.7286 103.015 94.9512 103.921 94.3198L118.693 84.032C119.6 83.4007 119.822 82.1545 119.19 81.2486C118.558 80.3427 117.311 80.1201 116.405 80.7514L103.275 89.8962L94.1216 76.774C93.4897 75.8681 92.2427 75.6455 91.3362 76.2768C90.4297 76.9081 90.2072 78.1543 90.839 79.0602L101.136 93.8227ZM2.00098 5.12689C2.28041 7.10663 2.28038 7.10663 2.28064 7.10659C2.2811 7.10653 2.28163 7.10645 2.28255 7.10632C2.28438 7.10607 2.28733 7.10566 2.29139 7.10509C2.29951 7.10396 2.31206 7.10221 2.32899 7.09987C2.36284 7.09519 2.41419 7.08813 2.48254 7.07886C2.61923 7.06032 2.8239 7.03293 3.09257 6.99796C3.62993 6.92803 4.42319 6.82784 5.44052 6.70767C7.47539 6.4673 10.4056 6.14713 13.9766 5.82933C21.1228 5.19337 30.8159 4.56867 41.0268 4.60863C51.2525 4.64865 61.9196 5.35547 71.0426 7.35177C80.2491 9.36635 87.4822 12.6105 91.3039 17.4086L94.4345 14.9187C89.722 9.00223 81.3294 5.50953 71.898 3.44574C62.383 1.36367 51.3998 0.650612 41.042 0.610077C30.6694 0.569484 20.8458 1.20356 13.6212 1.8465C10.0068 2.16816 7.038 2.49248 4.97027 2.73673C3.93631 2.85887 3.12735 2.96102 2.57533 3.03286C2.2993 3.06878 2.08749 3.09712 1.94387 3.1166C1.87206 3.12634 1.81729 3.13386 1.78008 3.13901C1.76147 3.14158 1.74724 3.14356 1.73747 3.14493C1.73258 3.14561 1.7288 3.14614 1.72614 3.14651C1.72482 3.14669 1.72367 3.14686 1.723 3.14695C1.72213 3.14707 1.72155 3.14715 2.00098 5.12689ZM91.3039 17.4086C100.477 28.9248 102.974 47.4371 103.044 63.4963C103.079 71.4553 102.518 78.6753 101.948 83.9072C101.664 86.5215 101.377 88.6353 101.162 90.0917C101.055 90.8198 100.965 91.3833 100.903 91.7626C100.872 91.9522 100.848 92.0958 100.832 92.1909C100.823 92.2384 100.817 92.2738 100.813 92.2968C100.811 92.3082 100.81 92.3166 100.809 92.3218C100.808 92.3244 100.808 92.3263 100.808 92.3273C100.808 92.3278 100.808 92.328 100.808 92.3282C100.808 92.3282 100.808 92.328 102.777 92.6796C104.747 93.0311 104.747 93.0305 104.747 93.0297C104.747 93.0291 104.747 93.0281 104.748 93.0271C104.748 93.0249 104.749 93.0219 104.749 93.0182C104.751 93.0107 104.752 93.0001 104.755 92.9863C104.76 92.9588 104.767 92.9187 104.776 92.8665C104.794 92.762 104.819 92.6087 104.852 92.4091C104.917 92.01 105.01 91.4254 105.121 90.6751C105.342 89.1748 105.635 87.0106 105.926 84.3404C106.507 79.0032 107.081 71.6275 107.045 63.4795C106.975 47.325 104.519 27.5793 94.4345 14.9187L91.3039 17.4086Z" fill="#FF8400"/>
</svg>
