<svg width="255" height="255" viewBox="0 0 255 255" fill="none" xmlns="http://www.w3.org/2000/svg">
<rect width="255" height="255" fill="#121E3C"/>
<path fill-rule="evenodd" clip-rule="evenodd" d="M123.963 27.2057C119.615 28.0283 121.409 26.5232 67.8728 74.2379C20.004 116.901 17.467 119.221 16.2647 121.441C15.1006 123.589 15 124.026 15 126.942C14.9996 129.665 15.1388 130.377 15.9894 132.016C17.2938 134.528 19.9287 136.991 22.5677 138.164L24.6999 139.112L33.771 139.217L42.8421 139.322V183.146V226.971H71.0789H99.3157L99.4144 193.711L99.5132 160.452L100.386 158.951C101.404 157.203 103.802 154.877 105.722 153.777C108.752 152.04 109.809 151.949 127.007 151.949C146.164 151.949 146.389 151.983 150.518 155.426C152.608 157.169 153.729 158.739 154.469 160.961C154.992 162.531 155.062 166.521 155.062 194.87V227L177.787 226.902L200.511 226.804L204.839 227C208.579 226.902 208.579 226.902 208.579 226.902L211.087 227V178.395L211.19 139.322L220.252 139.217L229.314 139.112L231.446 138.164C234.095 136.987 236.729 134.519 238.009 132.017C238.835 130.4 238.986 129.628 238.999 126.942C239.013 124.003 238.922 123.606 237.739 121.441C236.59 119.339 235.206 117.978 223.818 107.755L211.172 96.4036V73.5651C211.172 48.4248 211.167 48.3625 208.877 45.1812C207.403 43.1346 205.537 41.6952 202.96 40.6176L200.885 39.7503H190.037C179.286 39.7503 179.172 39.7576 177.319 40.5665C174.721 41.7009 171.854 44.2143 170.557 46.4962C169.514 48.3301 169.458 48.6562 169.336 53.5043C169.266 56.3007 169.104 58.5891 168.976 58.5891C168.847 58.5891 161.329 52.0152 152.27 43.9805C137.46 30.8464 135.547 29.2646 133.318 28.3087C130.651 27.1643 126.664 26.6942 123.963 27.2057Z" fill="#FF8400"/>
</svg>
